<svg width="48" height="48" viewBox="0 0 48 48" fill="none" xmlns="http://www.w3.org/2000/svg">
<path d="M33.2282 34.7152L31.4019 36.4694L6.38156 17.5394C5.0374 16.5454 4.44006 16.3335 4.08042 14.8717C3.10639 10.9127 1.12911 2.77555 1.01223 1.89849C0.895342 1.02143 1.64534 0.948337 2.03496 1.02143C6.08935 1.93503 14.41 3.82072 15.2574 4.0546C16.1048 4.28848 16.7306 5.00475 16.9376 5.33365L36.5156 31.4628L34.6528 33.29L11.9701 12.1309L33.2282 34.7152Z" stroke="white" stroke-width="2"/>
<path d="M40.3143 43.0473L36.5156 39.1371C35.7364 39.9045 34.0683 41.5417 33.63 41.951C33.1917 42.3603 32.7169 42.0972 32.5342 41.9145C32.376 41.7561 31.9352 41.3224 31.4385 40.8547C30.9417 40.3869 31.1584 39.9776 31.3289 39.8314C33.9344 37.1759 39.2551 31.7698 39.6934 31.3897C40.1317 31.0096 40.5091 31.1583 40.643 31.2801C40.9353 31.5359 41.6073 32.1498 41.958 32.5591C42.3086 32.9684 42.1041 33.4118 41.958 33.5824L39.1455 36.5059L43.8939 41.2567C43.8573 41.2079 44.113 41.2055 45.428 41.5856C46.7429 41.9656 47.0229 43.766 46.9986 44.6187C46.7794 45.4592 45.9028 47.111 44.1495 46.9941C41.958 46.8479 41.4101 45.7881 41.264 44.1802C41.1471 42.8938 42.2624 41.7926 42.8346 41.4028C42.0749 41.4613 40.8378 42.5235 40.3143 43.0473Z" stroke="white" stroke-width="2"/>
</svg>
